<svg xmlns="http://www.w3.org/2000/svg" viewBox="0 0 100 100" fill="none" shape-rendering="auto" aria-hidden="true"><!-- Generated by DiceBear (https://www.dicebear.com) --><metadata xmlns:rdf="http://www.w3.org/1999/02/22-rdf-syntax-ns#" xmlns:xsi="http://www.w3.org/2001/XMLSchema-instance" xmlns:dc="http://purl.org/dc/elements/1.1/" xmlns:dcterms="http://purl.org/dc/terms/"><rdf:RDF><rdf:Description><dc:title>Waves</dc:title><dc:creator>DiceBear</dc:creator><dc:source xsi:type="dcterms:URI">https://www.dicebear.com</dc:source><dcterms:license xsi:type="dcterms:URI">https://creativecommons.org/publicdomain/zero/1.0/</dcterms:license><dc:rights>“Waves” (https://www.dicebear.com) by “DiceBear”, licensed under “CC0 1.0” (https://creativecommons.org/publicdomain/zero/1.0/)</dc:rights></rdf:Description></rdf:RDF></metadata><defs><g id="layer-ripple-0b9cae89"><path d="M0 12c6 0 12 10 18 10s12-10 18-10 12 10 18 10 12-10 18-10 12 10 18 10 12-10 18-10 12 10 18 10 12-10 18-10 12 10 18 10 12-10 18-10 12 6 20 5v113H0Z" fill="#ffffff"/></g><g id="layer-calm-0b9cae89"><path d="M0 16c28 0 52-6 84-5s72 10 116 5v114H0Z" fill="#ffffff"/></g><g id="layer-rolling-0b9cae89"><path d="M0 8c12 0 23 16 35 16S58 8 70 8s23 16 35 16 23-16 35-16 23 16 35 16c8 0 17-8 25-10v116H0Z" fill="#ffffff"/></g><g id="layer-swell-0b9cae89"><path d="M0 24C25 24 35 0 62 0c22 0 34 20 56 22 18 1 30-10 48-10 12 0 24 6 34 8v110H0Z" fill="#ffffff"/></g><g id="layer-surge-0b9cae89"><path d="M0 6c24 0 44 4 62 14 16 8 34 8 52 2 20-7 38-12 54-12 12 0 24 4 32 6v114H0Z" fill="#ffffff"/></g><g id="body-quintet-0b9cae89"><g opacity=".14"><g class="dbwa-l1"><use transform="translate(-50) translate(4.0176, 3.04486)" href="#layer-ripple-0b9cae89"/></g></g><g opacity=".24"><g class="dbwa-l2"><use transform="translate(-50 17) translate(12.3046, -3.34009)" href="#layer-calm-0b9cae89"/></g></g><g opacity=".34"><g class="dbwa-l3"><use transform="translate(-50 34) translate(9.6748, 3.63896)" href="#layer-rolling-0b9cae89"/></g></g><g opacity=".42"><g class="dbwa-l4"><use transform="translate(-50 51) translate(-22.5104, -4.69963)" href="#layer-swell-0b9cae89"/></g></g><g opacity=".48"><g class="dbwa-l5"><use transform="translate(-50 68) translate(-16.544, 0.96265)" href="#layer-surge-0b9cae89"/></g></g></g><g id="bodyFree-default-0b9cae89"><use href="#body-quintet-0b9cae89"/></g><g id="rotation-free-0b9cae89"><use transform="rotate(-29.5496, 50, 50)" href="#bodyFree-default-0b9cae89"/></g><g id="animation-none-0b9cae89"></g><clipPath id="clip-0b9cae89"><rect width="100" height="100" rx="0" ry="0"/></clipPath></defs><g clip-path="url(#clip-0b9cae89)"><rect width="100" height="100" fill="#c2410c"/><use href="#rotation-free-0b9cae89"/><use href="#animation-none-0b9cae89"/></g></svg>